<svg class="MuiSvgIcon-root" focusable="false" viewBox="0 0 29.204 29.204" aria-hidden="true" xmlns="http://www.w3.org/2000/svg" width="29.204" height="29.204">
	<g id="Page-1" transform="translate(0 -0.001)">
		<g id="_033---Searching-Map" data-name="033---Searching-Map" transform="translate(0 0.001)">
			<path id="Shape" d="M.211,29.121a.487.487,0,0,0,.275.085.494.494,0,0,0,.175-.033l6.153-2.366,6.152,2.367h.014a.442.442,0,0,0,.321,0h.014l6.328-2.434a.487.487,0,0,0,.312-.455v-5.4l.02-.013L21.1,22.043a.948.948,0,0,0,.247.944l4.474,4.475a.973.973,0,0,0,1.377,0l1.721-1.721a.973.973,0,0,0,0-1.377L24.445,19.89a.973.973,0,0,0-.928-.251l-1.146-1.193a7.031,7.031,0,0,0-2.415-9.632V.487A.487.487,0,0,0,19.3.034L13.142,2.4,6.989.034A.479.479,0,0,0,6.912.021.451.451,0,0,0,6.824,0H6.808a.476.476,0,0,0-.1.02.46.46,0,0,0-.067.011L.313,2.468A.487.487,0,0,0,0,2.921v25.8a.487.487,0,0,0,.211.4Zm18.772-3.17L13.629,28.01V21.38a7.1,7.1,0,0,0,5.354,0Zm9.248-.9-1.721,1.72L22.035,22.3l1.721-1.721Zm-5.5-4.827L21.7,21.259l-.913-.955q.266-.219.513-.466a7.2,7.2,0,0,0,.512-.574Zm-.341-5.379a6.084,6.084,0,1,1-1.782-4.3,6.084,6.084,0,0,1,1.782,4.3ZM18.983,8.314a7.092,7.092,0,0,0-5.354,0V3.256L18.983,1.2ZM.973,3.256,6.328,1.2V17.523a.487.487,0,1,0,.973,0V1.2l5.354,2.059V8.813a7.04,7.04,0,0,0,0,12.069V28.01L7.3,25.951V20.931a.487.487,0,0,0-.973,0v5.02L.973,28.01Z" transform="translate(0 -0.001)" fill="#fff">
			</path>
			<path id="Shape-2" data-name="Shape" d="M27.925,24.928A3.141,3.141,0,0,0,27,27.164a.487.487,0,1,0,.973,0,2.19,2.19,0,0,1,2.19-2.19.487.487,0,0,0,0-.973A3.143,3.143,0,0,0,27.925,24.928Z" transform="translate(-14.748 -13.209)" fill="#fff">
			</path>
			<path id="Shape-3" data-name="Shape" d="M4.487,14A.487.487,0,0,0,4,14.487v7.3a.487.487,0,1,0,.973,0v-7.3A.487.487,0,0,0,4.487,14Z" transform="translate(-2.053 -9.858)" fill="#fff">
			</path>
		</g>
	</g>
</svg>
